<svg xmlns="http://www.w3.org/2000/svg" xmlns:xlink="http://www.w3.org/1999/xlink" width="500" zoomAndPan="magnify" viewBox="0 0 375 374.999991" height="500" preserveAspectRatio="xMidYMid meet" version="1.0"><defs><g/></defs><g fill="#344f1f" fill-opacity="0.4"><g transform="translate(19.45703, 208.552449)"><g><path d="M 18.078125 -2.203125 C 18.066406 -2.035156 18.035156 -1.875 17.984375 -1.71875 C 17.941406 -1.5625 17.816406 -1.4375 17.609375 -1.34375 C 17.535156 -1.3125 17.171875 -1.179688 16.515625 -0.953125 C 15.867188 -0.722656 15.117188 -0.457031 14.265625 -0.15625 C 13.421875 0.144531 12.582031 0.445312 11.75 0.75 C 10.914062 1.050781 10.28125 1.285156 9.84375 1.453125 C 9.625 1.546875 9.351562 1.640625 9.03125 1.734375 C 8.707031 1.835938 8.390625 1.890625 8.078125 1.890625 C 7.816406 1.890625 7.59375 1.828125 7.40625 1.703125 C 7.21875 1.578125 7.125 1.335938 7.125 0.984375 C 7.125 0.179688 7.144531 -0.550781 7.1875 -1.21875 C 7.226562 -1.882812 7.285156 -2.582031 7.359375 -3.3125 C 7.429688 -4.050781 7.507812 -4.863281 7.59375 -5.75 C 7.675781 -6.644531 7.753906 -7.707031 7.828125 -8.9375 C 7.921875 -10.539062 8.019531 -12.085938 8.125 -13.578125 C 8.238281 -15.078125 8.351562 -16.632812 8.46875 -18.25 L 8.84375 -22.953125 C 8.90625 -23.710938 8.960938 -24.488281 9.015625 -25.28125 C 9.066406 -26.082031 9.117188 -26.90625 9.171875 -27.75 L 9.484375 -31.109375 C 9.484375 -31.140625 9.425781 -31.15625 9.3125 -31.15625 C 9.164062 -31.15625 8.914062 -31.125 8.5625 -31.0625 C 8.21875 -31 7.804688 -30.921875 7.328125 -30.828125 C 6.859375 -30.742188 6.332031 -30.648438 5.75 -30.546875 C 5.175781 -30.441406 4.585938 -30.34375 3.984375 -30.25 C 3.835938 -30.25 3.695312 -30.28125 3.5625 -30.34375 C 3.425781 -30.414062 3.359375 -30.5 3.359375 -30.59375 C 3.359375 -30.664062 3.375 -30.71875 3.40625 -30.75 L 7.859375 -38.53125 C 8.867188 -38.75 9.953125 -38.972656 11.109375 -39.203125 C 12.273438 -39.429688 13.523438 -39.632812 14.859375 -39.8125 C 16.203125 -40 17.625 -40.148438 19.125 -40.265625 C 20.625 -40.390625 22.21875 -40.453125 23.90625 -40.453125 C 25.8125 -40.410156 27.664062 -40.21875 29.46875 -39.875 C 31.28125 -39.539062 32.882812 -38.972656 34.28125 -38.171875 C 35.6875 -37.378906 36.8125 -36.300781 37.65625 -34.9375 C 38.507812 -33.570312 38.9375 -31.847656 38.9375 -29.765625 C 38.9375 -28.609375 38.738281 -27.546875 38.34375 -26.578125 C 37.957031 -25.609375 37.457031 -24.734375 36.84375 -23.953125 C 36.226562 -23.171875 35.550781 -22.484375 34.8125 -21.890625 C 34.082031 -21.296875 33.382812 -20.785156 32.71875 -20.359375 C 32.050781 -19.941406 31.457031 -19.609375 30.9375 -19.359375 C 30.425781 -19.109375 30.082031 -18.945312 29.90625 -18.875 C 29.90625 -18.84375 29.914062 -18.796875 29.9375 -18.734375 C 29.96875 -18.679688 30.023438 -18.578125 30.109375 -18.421875 C 30.203125 -18.265625 30.335938 -18.046875 30.515625 -17.765625 C 30.691406 -17.484375 30.914062 -17.09375 31.1875 -16.59375 C 31.476562 -16.15625 31.828125 -15.566406 32.234375 -14.828125 C 32.640625 -14.097656 33.117188 -13.234375 33.671875 -12.234375 C 34.234375 -11.242188 34.878906 -10.132812 35.609375 -8.90625 C 36.347656 -7.675781 37.191406 -6.359375 38.140625 -4.953125 C 38.453125 -4.671875 38.804688 -4.5 39.203125 -4.4375 C 39.609375 -4.375 39.984375 -4.335938 40.328125 -4.328125 C 40.679688 -4.316406 40.976562 -4.296875 41.21875 -4.265625 C 41.457031 -4.242188 41.578125 -4.132812 41.578125 -3.9375 C 41.578125 -3.78125 41.425781 -3.609375 41.125 -3.421875 C 40.820312 -3.234375 40.46875 -3.035156 40.0625 -2.828125 C 39.664062 -2.628906 39.257812 -2.4375 38.84375 -2.25 C 38.425781 -2.070312 38.109375 -1.925781 37.890625 -1.8125 C 37.453125 -1.59375 36.992188 -1.378906 36.515625 -1.171875 C 36.046875 -0.972656 35.535156 -0.75 34.984375 -0.5 C 34.429688 -0.257812 33.820312 0.0234375 33.15625 0.359375 C 32.488281 0.691406 31.734375 1.082031 30.890625 1.53125 C 30.671875 1.664062 30.460938 1.753906 30.265625 1.796875 C 30.078125 1.847656 29.898438 1.875 29.734375 1.875 C 29.398438 1.875 29.113281 1.796875 28.875 1.640625 C 28.644531 1.484375 28.445312 1.289062 28.28125 1.0625 C 28.113281 0.84375 27.976562 0.617188 27.875 0.390625 C 27.78125 0.171875 27.695312 -0.015625 27.625 -0.171875 L 19.421875 -17.421875 Z M 19.765625 -20.796875 C 20.691406 -20.796875 21.660156 -21.035156 22.671875 -21.515625 C 23.679688 -21.992188 24.597656 -22.609375 25.421875 -23.359375 C 26.242188 -24.109375 26.921875 -24.957031 27.453125 -25.90625 C 27.984375 -26.863281 28.25 -27.828125 28.25 -28.796875 C 28.25 -31.453125 26.65625 -32.78125 23.46875 -32.78125 C 22.863281 -32.78125 22.359375 -32.738281 21.953125 -32.65625 C 21.554688 -32.570312 21.191406 -32.515625 20.859375 -32.484375 Z M 19.765625 -20.796875 "/></g></g></g><g fill="#344f1f" fill-opacity="0.4"><g transform="translate(59.917522, 208.552449)"><g><path d="M 31.359375 -5.53125 C 31.335938 -5.445312 31.328125 -5.375 31.328125 -5.3125 C 31.328125 -5.25 31.328125 -5.191406 31.328125 -5.140625 C 31.328125 -4.679688 31.398438 -4.300781 31.546875 -4 C 31.691406 -3.695312 31.851562 -3.445312 32.03125 -3.25 C 32.207031 -3.0625 32.367188 -2.90625 32.515625 -2.78125 C 32.660156 -2.664062 32.734375 -2.5625 32.734375 -2.46875 C 32.734375 -2.21875 32.457031 -1.984375 31.90625 -1.765625 L 24.515625 1.40625 C 24.492188 1.414062 24.429688 1.421875 24.328125 1.421875 C 24.171875 1.421875 24.019531 1.289062 23.875 1.03125 C 23.726562 0.78125 23.585938 0.457031 23.453125 0.0625 C 23.316406 -0.320312 23.1875 -0.738281 23.0625 -1.1875 C 22.945312 -1.644531 22.84375 -2.066406 22.75 -2.453125 C 21.59375 -1.109375 20.347656 -0.128906 19.015625 0.484375 C 17.679688 1.109375 16.351562 1.421875 15.03125 1.421875 C 13.488281 1.421875 11.984375 1.082031 10.515625 0.40625 C 9.054688 -0.269531 7.757812 -1.234375 6.625 -2.484375 C 5.488281 -3.742188 4.578125 -5.257812 3.890625 -7.03125 C 3.203125 -8.8125 2.859375 -10.8125 2.859375 -13.03125 C 2.859375 -15.644531 3.238281 -18.03125 4 -20.1875 C 4.757812 -22.351562 5.789062 -24.210938 7.09375 -25.765625 C 8.394531 -27.328125 9.910156 -28.535156 11.640625 -29.390625 C 13.367188 -30.242188 15.203125 -30.671875 17.140625 -30.671875 C 18.515625 -30.671875 19.816406 -30.390625 21.046875 -29.828125 C 22.273438 -29.273438 23.441406 -28.554688 24.546875 -27.671875 C 24.648438 -28.222656 24.710938 -28.660156 24.734375 -28.984375 C 24.753906 -29.316406 24.796875 -29.570312 24.859375 -29.75 C 24.921875 -29.9375 25.039062 -30.0625 25.21875 -30.125 C 25.40625 -30.195312 25.710938 -30.25 26.140625 -30.28125 C 27.453125 -30.46875 28.765625 -30.640625 30.078125 -30.796875 C 31.390625 -30.953125 32.757812 -31.066406 34.1875 -31.140625 Z M 23.140625 -15.890625 C 23.316406 -16.929688 23.4375 -17.910156 23.5 -18.828125 C 23.570312 -19.753906 23.625 -20.601562 23.65625 -21.375 C 23.363281 -21.59375 23.046875 -21.820312 22.703125 -22.0625 C 22.367188 -22.300781 22.003906 -22.523438 21.609375 -22.734375 C 21.210938 -22.953125 20.800781 -23.125 20.375 -23.25 C 19.945312 -23.375 19.492188 -23.4375 19.015625 -23.4375 C 18.023438 -23.4375 17.195312 -23.113281 16.53125 -22.46875 C 15.863281 -21.832031 15.320312 -21.046875 14.90625 -20.109375 C 14.5 -19.179688 14.207031 -18.191406 14.03125 -17.140625 C 13.851562 -16.097656 13.765625 -15.175781 13.765625 -14.375 C 13.765625 -11.476562 14.144531 -9.351562 14.90625 -8 C 15.664062 -6.65625 16.722656 -5.984375 18.078125 -5.984375 C 18.628906 -5.984375 19.242188 -6.140625 19.921875 -6.453125 C 20.597656 -6.765625 21.285156 -7.195312 21.984375 -7.75 Z M 23.140625 -15.890625 "/></g></g></g><g fill="#344f1f" fill-opacity="0.4"><g transform="translate(94.197694, 208.552449)"><g><path d="M 2.75 -13.40625 C 2.75 -15.8125 3.191406 -18.0625 4.078125 -20.15625 C 4.960938 -22.25 6.1875 -24.070312 7.75 -25.625 C 9.320312 -27.1875 11.175781 -28.414062 13.3125 -29.3125 C 15.445312 -30.21875 17.769531 -30.671875 20.28125 -30.671875 C 21.988281 -30.671875 23.445312 -30.53125 24.65625 -30.25 C 25.863281 -29.976562 26.847656 -29.671875 27.609375 -29.328125 C 28.378906 -28.992188 28.941406 -28.679688 29.296875 -28.390625 C 29.660156 -28.109375 29.84375 -27.960938 29.84375 -27.953125 C 29.84375 -27.835938 29.800781 -27.523438 29.71875 -27.015625 C 29.632812 -26.515625 29.539062 -25.929688 29.4375 -25.265625 C 29.34375 -24.597656 29.253906 -23.910156 29.171875 -23.203125 C 29.085938 -22.503906 29.046875 -21.894531 29.046875 -21.375 C 29.046875 -21.289062 29.015625 -21.191406 28.953125 -21.078125 C 28.898438 -20.960938 28.757812 -20.90625 28.53125 -20.90625 C 28.3125 -20.90625 27.988281 -20.984375 27.5625 -21.140625 C 27.144531 -21.296875 26.628906 -21.46875 26.015625 -21.65625 C 25.398438 -21.84375 24.691406 -22.007812 23.890625 -22.15625 C 23.097656 -22.3125 22.21875 -22.390625 21.25 -22.390625 C 20.03125 -22.390625 18.9375 -22.175781 17.96875 -21.75 C 17 -21.320312 16.164062 -20.726562 15.46875 -19.96875 C 14.769531 -19.207031 14.234375 -18.300781 13.859375 -17.25 C 13.484375 -16.207031 13.296875 -15.082031 13.296875 -13.875 C 13.296875 -12.613281 13.492188 -11.535156 13.890625 -10.640625 C 14.285156 -9.753906 14.8125 -9.03125 15.46875 -8.46875 C 16.132812 -7.914062 16.894531 -7.507812 17.75 -7.25 C 18.613281 -7 19.519531 -6.875 20.46875 -6.875 C 21.570312 -6.875 22.679688 -7.023438 23.796875 -7.328125 C 24.910156 -7.628906 25.960938 -8.054688 26.953125 -8.609375 C 26.992188 -8.617188 27.066406 -8.625 27.171875 -8.625 C 27.265625 -8.625 27.332031 -8.578125 27.375 -8.484375 C 27.425781 -8.398438 27.453125 -8.226562 27.453125 -7.96875 C 27.453125 -7.382812 27.453125 -6.675781 27.453125 -5.84375 C 27.453125 -5.007812 27.445312 -4.210938 27.4375 -3.453125 C 27.425781 -2.691406 27.410156 -2.046875 27.390625 -1.515625 C 27.378906 -0.984375 27.363281 -0.71875 27.34375 -0.71875 C 26.6875 -0.28125 25.972656 0.0703125 25.203125 0.34375 C 24.429688 0.625 23.632812 0.847656 22.8125 1.015625 C 22 1.179688 21.179688 1.289062 20.359375 1.34375 C 19.535156 1.394531 18.738281 1.421875 17.96875 1.421875 C 15.820312 1.421875 13.820312 1.0625 11.96875 0.34375 C 10.125 -0.363281 8.519531 -1.363281 7.15625 -2.65625 C 5.789062 -3.957031 4.710938 -5.519531 3.921875 -7.34375 C 3.140625 -9.164062 2.75 -11.1875 2.75 -13.40625 Z M 2.75 -13.40625 "/></g></g></g><g fill="#344f1f" fill-opacity="0.4"><g transform="translate(123.121589, 208.552449)"><g><path d="M 18.109375 -41.71875 L 17.125 -32.1875 C 16.988281 -30.894531 16.851562 -29.585938 16.71875 -28.265625 C 16.582031 -26.953125 16.445312 -25.691406 16.3125 -24.484375 C 16.1875 -23.273438 16.066406 -22.15625 15.953125 -21.125 C 15.847656 -20.101562 15.757812 -19.265625 15.6875 -18.609375 L 17.59375 -20.6875 L 20.671875 -24.296875 C 21.054688 -24.734375 21.429688 -25.171875 21.796875 -25.609375 C 22.160156 -26.046875 22.488281 -26.429688 22.78125 -26.765625 C 23.070312 -27.109375 23.304688 -27.394531 23.484375 -27.625 C 23.671875 -27.851562 23.785156 -27.988281 23.828125 -28.03125 L 34.875 -28.796875 C 34.925781 -28.816406 34.984375 -28.828125 35.046875 -28.828125 C 35.109375 -28.828125 35.171875 -28.828125 35.234375 -28.828125 C 35.546875 -28.828125 35.703125 -28.742188 35.703125 -28.578125 C 35.703125 -28.453125 35.507812 -28.171875 35.125 -27.734375 L 26.515625 -18.109375 C 26.128906 -17.691406 25.675781 -17.203125 25.15625 -16.640625 C 24.632812 -16.078125 24.050781 -15.457031 23.40625 -14.78125 L 27.421875 -10 L 34.34375 -2.5625 C 34.40625 -2.46875 34.488281 -2.394531 34.59375 -2.34375 C 34.707031 -2.300781 34.8125 -2.257812 34.90625 -2.21875 C 35.007812 -2.1875 35.101562 -2.144531 35.1875 -2.09375 C 35.269531 -2.050781 35.3125 -1.984375 35.3125 -1.890625 C 35.3125 -1.816406 35.296875 -1.757812 35.265625 -1.71875 C 35.242188 -1.6875 35.160156 -1.617188 35.015625 -1.515625 C 34.847656 -1.378906 34.554688 -1.191406 34.140625 -0.953125 C 33.734375 -0.722656 33.253906 -0.457031 32.703125 -0.15625 C 32.148438 0.132812 31.5625 0.429688 30.9375 0.734375 C 30.320312 1.035156 29.71875 1.304688 29.125 1.546875 C 28.539062 1.796875 28 2 27.5 2.15625 C 27.007812 2.3125 26.628906 2.390625 26.359375 2.390625 C 26.140625 2.390625 25.921875 2.332031 25.703125 2.21875 C 25.492188 2.113281 25.257812 1.914062 25 1.625 C 24.65625 1.21875 24.222656 0.6875 23.703125 0.03125 C 23.179688 -0.613281 22.617188 -1.320312 22.015625 -2.09375 C 21.410156 -2.875 20.789062 -3.679688 20.15625 -4.515625 C 19.519531 -5.347656 18.914062 -6.144531 18.34375 -6.90625 C 17.769531 -7.664062 17.25 -8.351562 16.78125 -8.96875 C 16.3125 -9.582031 15.945312 -10.070312 15.6875 -10.4375 C 15.59375 -10.351562 15.5 -10.285156 15.40625 -10.234375 C 15.320312 -10.191406 15.238281 -10.132812 15.15625 -10.0625 C 15.070312 -9.988281 15.003906 -9.898438 14.953125 -9.796875 C 14.898438 -9.691406 14.875 -9.550781 14.875 -9.375 C 14.875 -9.300781 14.851562 -9.09375 14.8125 -8.75 C 14.769531 -8.414062 14.726562 -8.015625 14.6875 -7.546875 C 14.644531 -7.078125 14.59375 -6.578125 14.53125 -6.046875 C 14.476562 -5.515625 14.425781 -5.015625 14.375 -4.546875 C 14.332031 -4.078125 14.289062 -3.671875 14.25 -3.328125 C 14.21875 -2.992188 14.203125 -2.789062 14.203125 -2.71875 C 14.203125 -2.59375 14.207031 -2.488281 14.21875 -2.40625 C 14.226562 -2.320312 14.234375 -2.242188 14.234375 -2.171875 C 14.234375 -1.972656 14.164062 -1.820312 14.03125 -1.71875 C 13.894531 -1.613281 13.5625 -1.488281 13.03125 -1.34375 L 5.828125 0.984375 C 5.628906 1.054688 5.363281 1.144531 5.03125 1.25 C 4.695312 1.363281 4.375 1.421875 4.0625 1.421875 C 3.8125 1.421875 3.585938 1.359375 3.390625 1.234375 C 3.203125 1.109375 3.109375 0.867188 3.109375 0.515625 L 6.5625 -39.078125 C 6.5625 -39.171875 6.550781 -39.257812 6.53125 -39.34375 C 6.519531 -39.425781 6.515625 -39.507812 6.515625 -39.59375 C 6.515625 -39.757812 6.582031 -39.910156 6.71875 -40.046875 C 6.851562 -40.191406 7.171875 -40.328125 7.671875 -40.453125 L 15.390625 -42.296875 C 15.585938 -42.328125 15.851562 -42.40625 16.1875 -42.53125 C 16.519531 -42.664062 16.835938 -42.734375 17.140625 -42.734375 C 17.378906 -42.734375 17.601562 -42.675781 17.8125 -42.5625 C 18.03125 -42.457031 18.140625 -42.25 18.140625 -41.9375 C 18.140625 -41.894531 18.132812 -41.851562 18.125 -41.8125 C 18.113281 -41.78125 18.109375 -41.75 18.109375 -41.71875 Z M 18.109375 -41.71875 "/></g></g></g><g fill="#344f1f" fill-opacity="0.4"><g transform="translate(157.676442, 208.552449)"><g><path d="M 18.078125 -2.203125 C 18.066406 -2.035156 18.035156 -1.875 17.984375 -1.71875 C 17.941406 -1.5625 17.816406 -1.4375 17.609375 -1.34375 C 17.535156 -1.3125 17.171875 -1.179688 16.515625 -0.953125 C 15.867188 -0.722656 15.117188 -0.457031 14.265625 -0.15625 C 13.421875 0.144531 12.582031 0.445312 11.75 0.75 C 10.914062 1.050781 10.28125 1.285156 9.84375 1.453125 C 9.625 1.546875 9.351562 1.640625 9.03125 1.734375 C 8.707031 1.835938 8.390625 1.890625 8.078125 1.890625 C 7.816406 1.890625 7.59375 1.828125 7.40625 1.703125 C 7.21875 1.578125 7.125 1.335938 7.125 0.984375 C 7.125 0.179688 7.144531 -0.550781 7.1875 -1.21875 C 7.226562 -1.882812 7.285156 -2.582031 7.359375 -3.3125 C 7.429688 -4.050781 7.507812 -4.863281 7.59375 -5.75 C 7.675781 -6.644531 7.753906 -7.707031 7.828125 -8.9375 C 7.921875 -10.539062 8.019531 -12.085938 8.125 -13.578125 C 8.238281 -15.078125 8.351562 -16.632812 8.46875 -18.25 L 8.84375 -22.953125 C 8.90625 -23.710938 8.960938 -24.488281 9.015625 -25.28125 C 9.066406 -26.082031 9.117188 -26.90625 9.171875 -27.75 L 9.484375 -31.109375 C 9.484375 -31.140625 9.425781 -31.15625 9.3125 -31.15625 C 9.164062 -31.15625 8.914062 -31.125 8.5625 -31.0625 C 8.21875 -31 7.804688 -30.921875 7.328125 -30.828125 C 6.859375 -30.742188 6.332031 -30.648438 5.75 -30.546875 C 5.175781 -30.441406 4.585938 -30.34375 3.984375 -30.25 C 3.835938 -30.25 3.695312 -30.28125 3.5625 -30.34375 C 3.425781 -30.414062 3.359375 -30.5 3.359375 -30.59375 C 3.359375 -30.664062 3.375 -30.71875 3.40625 -30.75 L 7.859375 -38.53125 C 8.867188 -38.75 9.953125 -38.972656 11.109375 -39.203125 C 12.273438 -39.429688 13.523438 -39.632812 14.859375 -39.8125 C 16.203125 -40 17.625 -40.148438 19.125 -40.265625 C 20.625 -40.390625 22.21875 -40.453125 23.90625 -40.453125 C 25.8125 -40.410156 27.664062 -40.21875 29.46875 -39.875 C 31.28125 -39.539062 32.882812 -38.972656 34.28125 -38.171875 C 35.6875 -37.378906 36.8125 -36.300781 37.65625 -34.9375 C 38.507812 -33.570312 38.9375 -31.847656 38.9375 -29.765625 C 38.9375 -28.609375 38.738281 -27.546875 38.34375 -26.578125 C 37.957031 -25.609375 37.457031 -24.734375 36.84375 -23.953125 C 36.226562 -23.171875 35.550781 -22.484375 34.8125 -21.890625 C 34.082031 -21.296875 33.382812 -20.785156 32.71875 -20.359375 C 32.050781 -19.941406 31.457031 -19.609375 30.9375 -19.359375 C 30.425781 -19.109375 30.082031 -18.945312 29.90625 -18.875 C 29.90625 -18.84375 29.914062 -18.796875 29.9375 -18.734375 C 29.96875 -18.679688 30.023438 -18.578125 30.109375 -18.421875 C 30.203125 -18.265625 30.335938 -18.046875 30.515625 -17.765625 C 30.691406 -17.484375 30.914062 -17.09375 31.1875 -16.59375 C 31.476562 -16.15625 31.828125 -15.566406 32.234375 -14.828125 C 32.640625 -14.097656 33.117188 -13.234375 33.671875 -12.234375 C 34.234375 -11.242188 34.878906 -10.132812 35.609375 -8.90625 C 36.347656 -7.675781 37.191406 -6.359375 38.140625 -4.953125 C 38.453125 -4.671875 38.804688 -4.5 39.203125 -4.4375 C 39.609375 -4.375 39.984375 -4.335938 40.328125 -4.328125 C 40.679688 -4.316406 40.976562 -4.296875 41.21875 -4.265625 C 41.457031 -4.242188 41.578125 -4.132812 41.578125 -3.9375 C 41.578125 -3.78125 41.425781 -3.609375 41.125 -3.421875 C 40.820312 -3.234375 40.46875 -3.035156 40.0625 -2.828125 C 39.664062 -2.628906 39.257812 -2.4375 38.84375 -2.25 C 38.425781 -2.070312 38.109375 -1.925781 37.890625 -1.8125 C 37.453125 -1.59375 36.992188 -1.378906 36.515625 -1.171875 C 36.046875 -0.972656 35.535156 -0.75 34.984375 -0.5 C 34.429688 -0.257812 33.820312 0.0234375 33.15625 0.359375 C 32.488281 0.691406 31.734375 1.082031 30.890625 1.53125 C 30.671875 1.664062 30.460938 1.753906 30.265625 1.796875 C 30.078125 1.847656 29.898438 1.875 29.734375 1.875 C 29.398438 1.875 29.113281 1.796875 28.875 1.640625 C 28.644531 1.484375 28.445312 1.289062 28.28125 1.0625 C 28.113281 0.84375 27.976562 0.617188 27.875 0.390625 C 27.78125 0.171875 27.695312 -0.015625 27.625 -0.171875 L 19.421875 -17.421875 Z M 19.765625 -20.796875 C 20.691406 -20.796875 21.660156 -21.035156 22.671875 -21.515625 C 23.679688 -21.992188 24.597656 -22.609375 25.421875 -23.359375 C 26.242188 -24.109375 26.921875 -24.957031 27.453125 -25.90625 C 27.984375 -26.863281 28.25 -27.828125 28.25 -28.796875 C 28.25 -31.453125 26.65625 -32.78125 23.46875 -32.78125 C 22.863281 -32.78125 22.359375 -32.738281 21.953125 -32.65625 C 21.554688 -32.570312 21.191406 -32.515625 20.859375 -32.484375 Z M 19.765625 -20.796875 "/></g></g></g><g fill="#344f1f" fill-opacity="0.4"><g transform="translate(198.136934, 208.552449)"><g><path d="M 31.359375 -5.53125 C 31.335938 -5.445312 31.328125 -5.375 31.328125 -5.3125 C 31.328125 -5.25 31.328125 -5.191406 31.328125 -5.140625 C 31.328125 -4.679688 31.398438 -4.300781 31.546875 -4 C 31.691406 -3.695312 31.851562 -3.445312 32.03125 -3.25 C 32.207031 -3.0625 32.367188 -2.90625 32.515625 -2.78125 C 32.660156 -2.664062 32.734375 -2.5625 32.734375 -2.46875 C 32.734375 -2.21875 32.457031 -1.984375 31.90625 -1.765625 L 24.515625 1.40625 C 24.492188 1.414062 24.429688 1.421875 24.328125 1.421875 C 24.171875 1.421875 24.019531 1.289062 23.875 1.03125 C 23.726562 0.78125 23.585938 0.457031 23.453125 0.0625 C 23.316406 -0.320312 23.1875 -0.738281 23.0625 -1.1875 C 22.945312 -1.644531 22.84375 -2.066406 22.75 -2.453125 C 21.59375 -1.109375 20.347656 -0.128906 19.015625 0.484375 C 17.679688 1.109375 16.351562 1.421875 15.03125 1.421875 C 13.488281 1.421875 11.984375 1.082031 10.515625 0.40625 C 9.054688 -0.269531 7.757812 -1.234375 6.625 -2.484375 C 5.488281 -3.742188 4.578125 -5.257812 3.890625 -7.03125 C 3.203125 -8.8125 2.859375 -10.8125 2.859375 -13.03125 C 2.859375 -15.644531 3.238281 -18.03125 4 -20.1875 C 4.757812 -22.351562 5.789062 -24.210938 7.09375 -25.765625 C 8.394531 -27.328125 9.910156 -28.535156 11.640625 -29.390625 C 13.367188 -30.242188 15.203125 -30.671875 17.140625 -30.671875 C 18.515625 -30.671875 19.816406 -30.390625 21.046875 -29.828125 C 22.273438 -29.273438 23.441406 -28.554688 24.546875 -27.671875 C 24.648438 -28.222656 24.710938 -28.660156 24.734375 -28.984375 C 24.753906 -29.316406 24.796875 -29.570312 24.859375 -29.75 C 24.921875 -29.9375 25.039062 -30.0625 25.21875 -30.125 C 25.40625 -30.195312 25.710938 -30.25 26.140625 -30.28125 C 27.453125 -30.46875 28.765625 -30.640625 30.078125 -30.796875 C 31.390625 -30.953125 32.757812 -31.066406 34.1875 -31.140625 Z M 23.140625 -15.890625 C 23.316406 -16.929688 23.4375 -17.910156 23.5 -18.828125 C 23.570312 -19.753906 23.625 -20.601562 23.65625 -21.375 C 23.363281 -21.59375 23.046875 -21.820312 22.703125 -22.0625 C 22.367188 -22.300781 22.003906 -22.523438 21.609375 -22.734375 C 21.210938 -22.953125 20.800781 -23.125 20.375 -23.25 C 19.945312 -23.375 19.492188 -23.4375 19.015625 -23.4375 C 18.023438 -23.4375 17.195312 -23.113281 16.53125 -22.46875 C 15.863281 -21.832031 15.320312 -21.046875 14.90625 -20.109375 C 14.5 -19.179688 14.207031 -18.191406 14.03125 -17.140625 C 13.851562 -16.097656 13.765625 -15.175781 13.765625 -14.375 C 13.765625 -11.476562 14.144531 -9.351562 14.90625 -8 C 15.664062 -6.65625 16.722656 -5.984375 18.078125 -5.984375 C 18.628906 -5.984375 19.242188 -6.140625 19.921875 -6.453125 C 20.597656 -6.765625 21.285156 -7.195312 21.984375 -7.75 Z M 23.140625 -15.890625 "/></g></g></g><g fill="#344f1f" fill-opacity="0.4"><g transform="translate(232.417106, 208.552449)"><g><path d="M 26.109375 0.984375 C 25.910156 1.046875 25.644531 1.132812 25.3125 1.25 C 24.976562 1.363281 24.65625 1.421875 24.34375 1.421875 C 24.09375 1.421875 23.867188 1.359375 23.671875 1.234375 C 23.484375 1.109375 23.390625 0.890625 23.390625 0.578125 L 23.390625 0.40625 C 23.492188 -0.582031 23.582031 -1.421875 23.65625 -2.109375 C 23.726562 -2.796875 23.796875 -3.414062 23.859375 -3.96875 C 23.929688 -4.53125 23.988281 -5.085938 24.03125 -5.640625 C 24.070312 -6.203125 24.128906 -6.851562 24.203125 -7.59375 C 24.285156 -8.34375 24.375 -9.222656 24.46875 -10.234375 C 24.570312 -11.253906 24.695312 -12.523438 24.84375 -14.046875 C 24.9375 -14.972656 25.019531 -15.921875 25.09375 -16.890625 C 25.164062 -17.867188 25.203125 -18.769531 25.203125 -19.59375 C 25.203125 -20.144531 25.160156 -20.648438 25.078125 -21.109375 C 24.992188 -21.578125 24.847656 -21.984375 24.640625 -22.328125 C 24.429688 -22.671875 24.140625 -22.929688 23.765625 -23.109375 C 23.398438 -23.296875 22.9375 -23.390625 22.375 -23.390625 C 21.945312 -23.390625 21.363281 -23.296875 20.625 -23.109375 C 19.882812 -22.929688 19.144531 -22.628906 18.40625 -22.203125 C 17.675781 -21.785156 17.023438 -21.234375 16.453125 -20.546875 C 15.890625 -19.859375 15.570312 -19.007812 15.5 -18 C 15.382812 -16.644531 15.28125 -15.484375 15.1875 -14.515625 C 15.101562 -13.554688 15.023438 -12.742188 14.953125 -12.078125 C 14.878906 -11.410156 14.816406 -10.863281 14.765625 -10.4375 C 14.722656 -10.019531 14.691406 -9.664062 14.671875 -9.375 C 14.648438 -9.300781 14.617188 -9.097656 14.578125 -8.765625 C 14.546875 -8.429688 14.507812 -8.035156 14.46875 -7.578125 C 14.425781 -7.117188 14.378906 -6.632812 14.328125 -6.125 C 14.285156 -5.613281 14.238281 -5.128906 14.1875 -4.671875 C 14.144531 -4.210938 14.109375 -3.816406 14.078125 -3.484375 C 14.054688 -3.160156 14.046875 -2.960938 14.046875 -2.890625 C 14.046875 -2.742188 14.050781 -2.617188 14.0625 -2.515625 C 14.070312 -2.410156 14.078125 -2.3125 14.078125 -2.21875 C 14.078125 -2.070312 14.003906 -1.945312 13.859375 -1.84375 C 13.722656 -1.75 13.414062 -1.640625 12.9375 -1.515625 L 5.65625 0.984375 C 5.457031 1.054688 5.191406 1.144531 4.859375 1.25 C 4.535156 1.363281 4.21875 1.421875 3.90625 1.421875 C 3.644531 1.421875 3.414062 1.359375 3.21875 1.234375 C 3.03125 1.109375 2.9375 0.890625 2.9375 0.578125 L 5.4375 -27.515625 C 5.5 -28.117188 5.566406 -28.535156 5.640625 -28.765625 C 5.722656 -28.992188 5.929688 -29.144531 6.265625 -29.21875 C 7.929688 -29.539062 9.644531 -29.867188 11.40625 -30.203125 C 13.164062 -30.546875 14.878906 -30.984375 16.546875 -31.515625 C 16.691406 -31.515625 16.773438 -31.492188 16.796875 -31.453125 C 16.828125 -31.410156 16.84375 -31.34375 16.84375 -31.25 C 16.84375 -31.207031 16.835938 -31.148438 16.828125 -31.078125 C 16.816406 -31.003906 16.789062 -30.835938 16.75 -30.578125 C 16.707031 -30.328125 16.644531 -29.941406 16.5625 -29.421875 C 16.476562 -28.898438 16.363281 -28.171875 16.21875 -27.234375 C 17.476562 -27.960938 18.660156 -28.550781 19.765625 -29 C 20.878906 -29.445312 21.925781 -29.796875 22.90625 -30.046875 C 23.882812 -30.296875 24.800781 -30.460938 25.65625 -30.546875 C 26.519531 -30.628906 27.328125 -30.671875 28.078125 -30.671875 C 30.660156 -30.671875 32.539062 -29.882812 33.71875 -28.3125 C 34.894531 -26.75 35.484375 -24.398438 35.484375 -21.265625 C 35.484375 -20.828125 35.472656 -20.375 35.453125 -19.90625 C 35.429688 -19.4375 35.394531 -18.957031 35.34375 -18.46875 L 34.078125 -6.65625 C 33.984375 -5.882812 33.925781 -5.171875 33.90625 -4.515625 C 33.894531 -3.867188 33.890625 -3.113281 33.890625 -2.25 C 33.890625 -2.101562 33.890625 -1.976562 33.890625 -1.875 C 33.898438 -1.78125 33.90625 -1.695312 33.90625 -1.625 C 33.90625 -1.457031 33.835938 -1.328125 33.703125 -1.234375 C 33.566406 -1.140625 33.257812 -1.019531 32.78125 -0.875 Z M 26.109375 0.984375 "/></g></g></g><g fill="#344f1f" fill-opacity="0.4"><g transform="translate(268.729917, 208.552449)"><g><path d="M 23.328125 -19.59375 C 23.148438 -20.007812 22.898438 -20.4375 22.578125 -20.875 C 22.253906 -21.320312 21.878906 -21.726562 21.453125 -22.09375 C 21.035156 -22.457031 20.578125 -22.753906 20.078125 -22.984375 C 19.585938 -23.210938 19.066406 -23.328125 18.515625 -23.328125 C 17.765625 -23.328125 17.0625 -23.015625 16.40625 -22.390625 C 15.75 -21.773438 15.171875 -20.945312 14.671875 -19.90625 C 14.179688 -18.875 13.789062 -17.691406 13.5 -16.359375 C 13.21875 -15.035156 13.078125 -13.660156 13.078125 -12.234375 C 13.078125 -11.347656 13.15625 -10.515625 13.3125 -9.734375 C 13.46875 -8.960938 13.707031 -8.28125 14.03125 -7.6875 C 14.363281 -7.101562 14.789062 -6.632812 15.3125 -6.28125 C 15.84375 -5.9375 16.472656 -5.765625 17.203125 -5.765625 C 18.304688 -5.765625 19.3125 -6.109375 20.21875 -6.796875 C 21.132812 -7.484375 21.914062 -8.378906 22.5625 -9.484375 C 22.582031 -9.867188 22.609375 -10.328125 22.640625 -10.859375 C 22.679688 -11.390625 22.726562 -12.035156 22.78125 -12.796875 C 22.832031 -13.554688 22.898438 -14.453125 22.984375 -15.484375 C 23.066406 -16.515625 23.171875 -17.75 23.296875 -19.1875 Z M 32.421875 -3 C 32.242188 -1.1875 31.832031 0.503906 31.1875 2.078125 C 30.550781 3.660156 29.738281 5.101562 28.75 6.40625 C 27.769531 7.71875 26.65625 8.890625 25.40625 9.921875 C 24.15625 10.960938 22.828125 11.835938 21.421875 12.546875 C 20.015625 13.265625 18.570312 13.8125 17.09375 14.1875 C 15.613281 14.5625 14.148438 14.75 12.703125 14.75 C 11.929688 14.75 11.140625 14.722656 10.328125 14.671875 C 9.523438 14.617188 8.738281 14.515625 7.96875 14.359375 C 7.195312 14.203125 6.460938 13.976562 5.765625 13.6875 C 5.078125 13.40625 4.457031 13.046875 3.90625 12.609375 L 3.90625 12.59375 C 3.90625 12.5 3.972656 12.175781 4.109375 11.625 C 4.242188 11.070312 4.40625 10.425781 4.59375 9.6875 C 4.789062 8.945312 4.992188 8.179688 5.203125 7.390625 C 5.421875 6.597656 5.601562 5.921875 5.75 5.359375 C 5.820312 5.097656 5.894531 4.921875 5.96875 4.828125 C 6.039062 4.742188 6.117188 4.703125 6.203125 4.703125 C 6.316406 4.703125 6.382812 4.710938 6.40625 4.734375 C 6.9375 5.078125 7.4375 5.363281 7.90625 5.59375 C 8.375 5.820312 8.867188 6.003906 9.390625 6.140625 C 9.910156 6.273438 10.476562 6.367188 11.09375 6.421875 C 11.71875 6.484375 12.441406 6.515625 13.265625 6.515625 C 14.554688 6.515625 15.695312 6.265625 16.6875 5.765625 C 17.675781 5.273438 18.523438 4.632812 19.234375 3.84375 C 19.953125 3.0625 20.523438 2.195312 20.953125 1.25 C 21.378906 0.300781 21.675781 -0.625 21.84375 -1.53125 C 20.53125 -0.65625 19.191406 0.0507812 17.828125 0.59375 C 16.472656 1.144531 15.109375 1.421875 13.734375 1.421875 C 11.847656 1.421875 10.21875 1.039062 8.84375 0.28125 C 7.46875 -0.476562 6.332031 -1.5 5.4375 -2.78125 C 4.539062 -4.0625 3.875 -5.53125 3.4375 -7.1875 C 3.007812 -8.84375 2.796875 -10.578125 2.796875 -12.390625 C 2.796875 -13.816406 2.925781 -15.257812 3.1875 -16.71875 C 3.457031 -18.175781 3.851562 -19.582031 4.375 -20.9375 C 4.90625 -22.289062 5.550781 -23.554688 6.3125 -24.734375 C 7.082031 -25.921875 7.972656 -26.953125 8.984375 -27.828125 C 9.992188 -28.710938 11.113281 -29.40625 12.34375 -29.90625 C 13.570312 -30.414062 14.90625 -30.671875 16.34375 -30.671875 C 17.925781 -30.671875 19.390625 -30.320312 20.734375 -29.625 C 22.078125 -28.925781 23.300781 -28.066406 24.40625 -27.046875 C 24.4375 -27.367188 24.460938 -27.625 24.484375 -27.8125 C 24.503906 -28.007812 24.550781 -28.160156 24.625 -28.265625 C 24.695312 -28.378906 24.816406 -28.460938 24.984375 -28.515625 C 25.160156 -28.578125 25.414062 -28.644531 25.75 -28.71875 C 25.945312 -28.75 26.3125 -28.820312 26.84375 -28.9375 C 27.375 -29.0625 28.003906 -29.207031 28.734375 -29.375 C 29.472656 -29.539062 30.28125 -29.710938 31.15625 -29.890625 C 32.039062 -30.078125 32.929688 -30.269531 33.828125 -30.46875 C 34.046875 -30.53125 34.25 -30.5625 34.4375 -30.5625 C 35 -30.5625 35.28125 -30.191406 35.28125 -29.453125 C 35.28125 -29.367188 35.28125 -29.285156 35.28125 -29.203125 C 35.28125 -29.117188 35.273438 -29.03125 35.265625 -28.9375 Z M 32.421875 -3 "/></g></g></g><g fill="#344f1f" fill-opacity="0.4"><g transform="translate(304.30109, 208.552449)"><g><path d="M 19.671875 -30.671875 C 21.410156 -30.671875 22.988281 -30.34375 24.40625 -29.6875 C 25.832031 -29.039062 27.050781 -28.195312 28.0625 -27.15625 C 29.082031 -26.125 29.867188 -24.96875 30.421875 -23.6875 C 30.972656 -22.40625 31.25 -21.125 31.25 -19.84375 C 31.25 -18.707031 30.898438 -17.566406 30.203125 -16.421875 C 29.503906 -15.273438 28.523438 -14.242188 27.265625 -13.328125 C 26.015625 -12.410156 24.507812 -11.664062 22.75 -11.09375 C 20.988281 -10.53125 19.054688 -10.25 16.953125 -10.25 C 15.859375 -10.25 14.707031 -10.359375 13.5 -10.578125 C 13.570312 -9.796875 13.796875 -9.117188 14.171875 -8.546875 C 14.554688 -7.972656 15.039062 -7.503906 15.625 -7.140625 C 16.21875 -6.773438 16.882812 -6.503906 17.625 -6.328125 C 18.363281 -6.160156 19.128906 -6.078125 19.921875 -6.078125 C 20.804688 -6.078125 21.65625 -6.15625 22.46875 -6.3125 C 23.28125 -6.46875 24.0625 -6.671875 24.8125 -6.921875 C 25.5625 -7.179688 26.285156 -7.46875 26.984375 -7.78125 C 27.679688 -8.09375 28.34375 -8.40625 28.96875 -8.71875 C 29.132812 -8.75 29.273438 -8.773438 29.390625 -8.796875 C 29.503906 -8.828125 29.617188 -8.84375 29.734375 -8.84375 C 29.734375 -8.84375 29.726562 -8.695312 29.71875 -8.40625 C 29.707031 -8.113281 29.703125 -7.703125 29.703125 -7.171875 C 29.703125 -6.640625 29.695312 -6 29.6875 -5.25 C 29.675781 -4.5 29.664062 -3.664062 29.65625 -2.75 C 29.707031 -2.65625 29.742188 -2.5625 29.765625 -2.46875 C 29.785156 -2.375 29.796875 -2.300781 29.796875 -2.25 C 29.796875 -2.03125 29.59375 -1.789062 29.1875 -1.53125 C 28.78125 -1.28125 28.25 -1.015625 27.59375 -0.734375 C 26.945312 -0.460938 26.207031 -0.203125 25.375 0.046875 C 24.539062 0.304688 23.691406 0.539062 22.828125 0.75 C 21.972656 0.96875 21.140625 1.132812 20.328125 1.25 C 19.523438 1.363281 18.820312 1.421875 18.21875 1.421875 C 16.238281 1.421875 14.316406 1.078125 12.453125 0.390625 C 10.597656 -0.285156 8.953125 -1.265625 7.515625 -2.546875 C 6.078125 -3.835938 4.925781 -5.394531 4.0625 -7.21875 C 3.207031 -9.050781 2.78125 -11.113281 2.78125 -13.40625 C 2.78125 -15.8125 3.191406 -18.0625 4.015625 -20.15625 C 4.835938 -22.25 5.992188 -24.070312 7.484375 -25.625 C 8.984375 -27.1875 10.765625 -28.414062 12.828125 -29.3125 C 14.898438 -30.21875 17.179688 -30.671875 19.671875 -30.671875 Z M 19.34375 -23.359375 C 18.59375 -23.359375 17.898438 -23.195312 17.265625 -22.875 C 16.640625 -22.550781 16.0625 -22.09375 15.53125 -21.5 C 15.007812 -20.90625 14.554688 -20.191406 14.171875 -19.359375 C 13.796875 -18.523438 13.488281 -17.601562 13.25 -16.59375 C 15.132812 -16.925781 16.695312 -17.273438 17.9375 -17.640625 C 19.1875 -18.003906 20.1875 -18.375 20.9375 -18.75 C 21.6875 -19.125 22.21875 -19.5 22.53125 -19.875 C 22.84375 -20.257812 23 -20.625 23 -20.96875 C 23 -21.300781 22.875 -21.613281 22.625 -21.90625 C 22.382812 -22.195312 22.078125 -22.453125 21.703125 -22.671875 C 21.335938 -22.890625 20.941406 -23.054688 20.515625 -23.171875 C 20.085938 -23.296875 19.695312 -23.359375 19.34375 -23.359375 Z M 19.34375 -23.359375 "/></g></g></g><g fill="#344f1f" fill-opacity="0.4"><g transform="translate(335.669644, 208.552449)"><g><path d="M 25.78125 -22.375 C 25.394531 -22.40625 24.960938 -22.441406 24.484375 -22.484375 C 24.003906 -22.535156 23.5 -22.5625 22.96875 -22.5625 C 22.164062 -22.5625 21.347656 -22.492188 20.515625 -22.359375 C 19.679688 -22.222656 18.90625 -21.953125 18.1875 -21.546875 C 17.476562 -21.140625 16.863281 -20.582031 16.34375 -19.875 C 15.832031 -19.175781 15.503906 -18.265625 15.359375 -17.140625 C 15.234375 -15.785156 15.128906 -14.671875 15.046875 -13.796875 C 14.960938 -12.929688 14.898438 -12.21875 14.859375 -11.65625 C 14.828125 -11.101562 14.796875 -10.65625 14.765625 -10.3125 C 14.742188 -9.976562 14.722656 -9.664062 14.703125 -9.375 C 14.703125 -9.300781 14.6875 -9.097656 14.65625 -8.765625 C 14.632812 -8.429688 14.59375 -8.046875 14.53125 -7.609375 C 14.476562 -7.171875 14.425781 -6.691406 14.375 -6.171875 C 14.332031 -5.660156 14.285156 -5.1875 14.234375 -4.75 C 14.179688 -4.3125 14.140625 -3.925781 14.109375 -3.59375 C 14.085938 -3.269531 14.078125 -3.070312 14.078125 -3 C 14.078125 -2.851562 14.078125 -2.726562 14.078125 -2.625 C 14.085938 -2.519531 14.09375 -2.421875 14.09375 -2.328125 C 14.09375 -2.179688 14.023438 -2.054688 13.890625 -1.953125 C 13.753906 -1.859375 13.445312 -1.75 12.96875 -1.625 L 5.6875 0.984375 C 5.488281 1.054688 5.222656 1.144531 4.890625 1.25 C 4.554688 1.363281 4.238281 1.421875 3.9375 1.421875 C 3.675781 1.421875 3.445312 1.359375 3.25 1.234375 C 3.0625 1.109375 2.96875 0.890625 2.96875 0.578125 L 5.328125 -26.65625 C 5.378906 -27.257812 5.445312 -27.675781 5.53125 -27.90625 C 5.613281 -28.132812 5.820312 -28.285156 6.15625 -28.359375 C 7.820312 -28.691406 9.539062 -29.023438 11.3125 -29.359375 C 13.09375 -29.703125 14.816406 -30.140625 16.484375 -30.671875 C 16.628906 -30.671875 16.71875 -30.644531 16.75 -30.59375 C 16.78125 -30.550781 16.796875 -30.484375 16.796875 -30.390625 C 16.796875 -30.359375 16.789062 -30.304688 16.78125 -30.234375 C 16.769531 -30.160156 16.738281 -29.992188 16.6875 -29.734375 C 16.644531 -29.472656 16.582031 -29.082031 16.5 -28.5625 C 16.414062 -28.039062 16.300781 -27.3125 16.15625 -26.375 C 17 -27.039062 17.925781 -27.644531 18.9375 -28.1875 C 19.957031 -28.738281 20.976562 -29.210938 22 -29.609375 C 23.03125 -30.003906 24.019531 -30.316406 24.96875 -30.546875 C 25.925781 -30.773438 26.765625 -30.890625 27.484375 -30.890625 Z M 25.78125 -22.375 "/></g></g></g><g fill="#344f1f" fill-opacity="1"><g transform="translate(16.969898, 206.065319)"><g><path d="M 18.078125 -2.203125 C 18.066406 -2.035156 18.035156 -1.875 17.984375 -1.71875 C 17.941406 -1.5625 17.816406 -1.4375 17.609375 -1.34375 C 17.535156 -1.3125 17.171875 -1.179688 16.515625 -0.953125 C 15.867188 -0.722656 15.117188 -0.457031 14.265625 -0.15625 C 13.421875 0.144531 12.582031 0.445312 11.75 0.75 C 10.914062 1.050781 10.28125 1.285156 9.84375 1.453125 C 9.625 1.546875 9.351562 1.640625 9.03125 1.734375 C 8.707031 1.835938 8.390625 1.890625 8.078125 1.890625 C 7.816406 1.890625 7.59375 1.828125 7.40625 1.703125 C 7.21875 1.578125 7.125 1.335938 7.125 0.984375 C 7.125 0.179688 7.144531 -0.550781 7.1875 -1.21875 C 7.226562 -1.882812 7.285156 -2.582031 7.359375 -3.3125 C 7.429688 -4.050781 7.507812 -4.863281 7.59375 -5.75 C 7.675781 -6.644531 7.753906 -7.707031 7.828125 -8.9375 C 7.921875 -10.539062 8.019531 -12.085938 8.125 -13.578125 C 8.238281 -15.078125 8.351562 -16.632812 8.46875 -18.25 L 8.84375 -22.953125 C 8.90625 -23.710938 8.960938 -24.488281 9.015625 -25.28125 C 9.066406 -26.082031 9.117188 -26.90625 9.171875 -27.75 L 9.484375 -31.109375 C 9.484375 -31.140625 9.425781 -31.15625 9.3125 -31.15625 C 9.164062 -31.15625 8.914062 -31.125 8.5625 -31.0625 C 8.21875 -31 7.804688 -30.921875 7.328125 -30.828125 C 6.859375 -30.742188 6.332031 -30.648438 5.75 -30.546875 C 5.175781 -30.441406 4.585938 -30.34375 3.984375 -30.25 C 3.835938 -30.25 3.695312 -30.28125 3.5625 -30.34375 C 3.425781 -30.414062 3.359375 -30.5 3.359375 -30.59375 C 3.359375 -30.664062 3.375 -30.71875 3.40625 -30.75 L 7.859375 -38.53125 C 8.867188 -38.75 9.953125 -38.972656 11.109375 -39.203125 C 12.273438 -39.429688 13.523438 -39.632812 14.859375 -39.8125 C 16.203125 -40 17.625 -40.148438 19.125 -40.265625 C 20.625 -40.390625 22.21875 -40.453125 23.90625 -40.453125 C 25.8125 -40.410156 27.664062 -40.21875 29.46875 -39.875 C 31.28125 -39.539062 32.882812 -38.972656 34.28125 -38.171875 C 35.6875 -37.378906 36.8125 -36.300781 37.65625 -34.9375 C 38.507812 -33.570312 38.9375 -31.847656 38.9375 -29.765625 C 38.9375 -28.609375 38.738281 -27.546875 38.34375 -26.578125 C 37.957031 -25.609375 37.457031 -24.734375 36.84375 -23.953125 C 36.226562 -23.171875 35.550781 -22.484375 34.8125 -21.890625 C 34.082031 -21.296875 33.382812 -20.785156 32.71875 -20.359375 C 32.050781 -19.941406 31.457031 -19.609375 30.9375 -19.359375 C 30.425781 -19.109375 30.082031 -18.945312 29.90625 -18.875 C 29.90625 -18.84375 29.914062 -18.796875 29.9375 -18.734375 C 29.96875 -18.679688 30.023438 -18.578125 30.109375 -18.421875 C 30.203125 -18.265625 30.335938 -18.046875 30.515625 -17.765625 C 30.691406 -17.484375 30.914062 -17.09375 31.1875 -16.59375 C 31.476562 -16.15625 31.828125 -15.566406 32.234375 -14.828125 C 32.640625 -14.097656 33.117188 -13.234375 33.671875 -12.234375 C 34.234375 -11.242188 34.878906 -10.132812 35.609375 -8.90625 C 36.347656 -7.675781 37.191406 -6.359375 38.140625 -4.953125 C 38.453125 -4.671875 38.804688 -4.5 39.203125 -4.4375 C 39.609375 -4.375 39.984375 -4.335938 40.328125 -4.328125 C 40.679688 -4.316406 40.976562 -4.296875 41.21875 -4.265625 C 41.457031 -4.242188 41.578125 -4.132812 41.578125 -3.9375 C 41.578125 -3.78125 41.425781 -3.609375 41.125 -3.421875 C 40.820312 -3.234375 40.46875 -3.035156 40.0625 -2.828125 C 39.664062 -2.628906 39.257812 -2.4375 38.84375 -2.25 C 38.425781 -2.070312 38.109375 -1.925781 37.890625 -1.8125 C 37.453125 -1.59375 36.992188 -1.378906 36.515625 -1.171875 C 36.046875 -0.972656 35.535156 -0.75 34.984375 -0.5 C 34.429688 -0.257812 33.820312 0.0234375 33.15625 0.359375 C 32.488281 0.691406 31.734375 1.082031 30.890625 1.53125 C 30.671875 1.664062 30.460938 1.753906 30.265625 1.796875 C 30.078125 1.847656 29.898438 1.875 29.734375 1.875 C 29.398438 1.875 29.113281 1.796875 28.875 1.640625 C 28.644531 1.484375 28.445312 1.289062 28.28125 1.0625 C 28.113281 0.84375 27.976562 0.617188 27.875 0.390625 C 27.78125 0.171875 27.695312 -0.015625 27.625 -0.171875 L 19.421875 -17.421875 Z M 19.765625 -20.796875 C 20.691406 -20.796875 21.660156 -21.035156 22.671875 -21.515625 C 23.679688 -21.992188 24.597656 -22.609375 25.421875 -23.359375 C 26.242188 -24.109375 26.921875 -24.957031 27.453125 -25.90625 C 27.984375 -26.863281 28.25 -27.828125 28.25 -28.796875 C 28.25 -31.453125 26.65625 -32.78125 23.46875 -32.78125 C 22.863281 -32.78125 22.359375 -32.738281 21.953125 -32.65625 C 21.554688 -32.570312 21.191406 -32.515625 20.859375 -32.484375 Z M 19.765625 -20.796875 "/></g></g></g><g fill="#344f1f" fill-opacity="1"><g transform="translate(57.430389, 206.065319)"><g><path d="M 31.359375 -5.53125 C 31.335938 -5.445312 31.328125 -5.375 31.328125 -5.3125 C 31.328125 -5.25 31.328125 -5.191406 31.328125 -5.140625 C 31.328125 -4.679688 31.398438 -4.300781 31.546875 -4 C 31.691406 -3.695312 31.851562 -3.445312 32.03125 -3.25 C 32.207031 -3.0625 32.367188 -2.90625 32.515625 -2.78125 C 32.660156 -2.664062 32.734375 -2.5625 32.734375 -2.46875 C 32.734375 -2.21875 32.457031 -1.984375 31.90625 -1.765625 L 24.515625 1.40625 C 24.492188 1.414062 24.429688 1.421875 24.328125 1.421875 C 24.171875 1.421875 24.019531 1.289062 23.875 1.03125 C 23.726562 0.78125 23.585938 0.457031 23.453125 0.0625 C 23.316406 -0.320312 23.1875 -0.738281 23.0625 -1.1875 C 22.945312 -1.644531 22.84375 -2.066406 22.75 -2.453125 C 21.59375 -1.109375 20.347656 -0.128906 19.015625 0.484375 C 17.679688 1.109375 16.351562 1.421875 15.03125 1.421875 C 13.488281 1.421875 11.984375 1.082031 10.515625 0.40625 C 9.054688 -0.269531 7.757812 -1.234375 6.625 -2.484375 C 5.488281 -3.742188 4.578125 -5.257812 3.890625 -7.03125 C 3.203125 -8.8125 2.859375 -10.8125 2.859375 -13.03125 C 2.859375 -15.644531 3.238281 -18.03125 4 -20.1875 C 4.757812 -22.351562 5.789062 -24.210938 7.09375 -25.765625 C 8.394531 -27.328125 9.910156 -28.535156 11.640625 -29.390625 C 13.367188 -30.242188 15.203125 -30.671875 17.140625 -30.671875 C 18.515625 -30.671875 19.816406 -30.390625 21.046875 -29.828125 C 22.273438 -29.273438 23.441406 -28.554688 24.546875 -27.671875 C 24.648438 -28.222656 24.710938 -28.660156 24.734375 -28.984375 C 24.753906 -29.316406 24.796875 -29.570312 24.859375 -29.75 C 24.921875 -29.9375 25.039062 -30.0625 25.21875 -30.125 C 25.40625 -30.195312 25.710938 -30.25 26.140625 -30.28125 C 27.453125 -30.46875 28.765625 -30.640625 30.078125 -30.796875 C 31.390625 -30.953125 32.757812 -31.066406 34.1875 -31.140625 Z M 23.140625 -15.890625 C 23.316406 -16.929688 23.4375 -17.910156 23.5 -18.828125 C 23.570312 -19.753906 23.625 -20.601562 23.65625 -21.375 C 23.363281 -21.59375 23.046875 -21.820312 22.703125 -22.0625 C 22.367188 -22.300781 22.003906 -22.523438 21.609375 -22.734375 C 21.210938 -22.953125 20.800781 -23.125 20.375 -23.25 C 19.945312 -23.375 19.492188 -23.4375 19.015625 -23.4375 C 18.023438 -23.4375 17.195312 -23.113281 16.53125 -22.46875 C 15.863281 -21.832031 15.320312 -21.046875 14.90625 -20.109375 C 14.5 -19.179688 14.207031 -18.191406 14.03125 -17.140625 C 13.851562 -16.097656 13.765625 -15.175781 13.765625 -14.375 C 13.765625 -11.476562 14.144531 -9.351562 14.90625 -8 C 15.664062 -6.65625 16.722656 -5.984375 18.078125 -5.984375 C 18.628906 -5.984375 19.242188 -6.140625 19.921875 -6.453125 C 20.597656 -6.765625 21.285156 -7.195312 21.984375 -7.75 Z M 23.140625 -15.890625 "/></g></g></g><g fill="#344f1f" fill-opacity="1"><g transform="translate(91.710561, 206.065319)"><g><path d="M 2.75 -13.40625 C 2.75 -15.8125 3.191406 -18.0625 4.078125 -20.15625 C 4.960938 -22.25 6.1875 -24.070312 7.75 -25.625 C 9.320312 -27.1875 11.175781 -28.414062 13.3125 -29.3125 C 15.445312 -30.21875 17.769531 -30.671875 20.28125 -30.671875 C 21.988281 -30.671875 23.445312 -30.53125 24.65625 -30.25 C 25.863281 -29.976562 26.847656 -29.671875 27.609375 -29.328125 C 28.378906 -28.992188 28.941406 -28.679688 29.296875 -28.390625 C 29.660156 -28.109375 29.84375 -27.960938 29.84375 -27.953125 C 29.84375 -27.835938 29.800781 -27.523438 29.71875 -27.015625 C 29.632812 -26.515625 29.539062 -25.929688 29.4375 -25.265625 C 29.34375 -24.597656 29.253906 -23.910156 29.171875 -23.203125 C 29.085938 -22.503906 29.046875 -21.894531 29.046875 -21.375 C 29.046875 -21.289062 29.015625 -21.191406 28.953125 -21.078125 C 28.898438 -20.960938 28.757812 -20.90625 28.53125 -20.90625 C 28.3125 -20.90625 27.988281 -20.984375 27.5625 -21.140625 C 27.144531 -21.296875 26.628906 -21.46875 26.015625 -21.65625 C 25.398438 -21.84375 24.691406 -22.007812 23.890625 -22.15625 C 23.097656 -22.3125 22.21875 -22.390625 21.25 -22.390625 C 20.03125 -22.390625 18.9375 -22.175781 17.96875 -21.75 C 17 -21.320312 16.164062 -20.726562 15.46875 -19.96875 C 14.769531 -19.207031 14.234375 -18.300781 13.859375 -17.25 C 13.484375 -16.207031 13.296875 -15.082031 13.296875 -13.875 C 13.296875 -12.613281 13.492188 -11.535156 13.890625 -10.640625 C 14.285156 -9.753906 14.8125 -9.03125 15.46875 -8.46875 C 16.132812 -7.914062 16.894531 -7.507812 17.75 -7.25 C 18.613281 -7 19.519531 -6.875 20.46875 -6.875 C 21.570312 -6.875 22.679688 -7.023438 23.796875 -7.328125 C 24.910156 -7.628906 25.960938 -8.054688 26.953125 -8.609375 C 26.992188 -8.617188 27.066406 -8.625 27.171875 -8.625 C 27.265625 -8.625 27.332031 -8.578125 27.375 -8.484375 C 27.425781 -8.398438 27.453125 -8.226562 27.453125 -7.96875 C 27.453125 -7.382812 27.453125 -6.675781 27.453125 -5.84375 C 27.453125 -5.007812 27.445312 -4.210938 27.4375 -3.453125 C 27.425781 -2.691406 27.410156 -2.046875 27.390625 -1.515625 C 27.378906 -0.984375 27.363281 -0.71875 27.34375 -0.71875 C 26.6875 -0.28125 25.972656 0.0703125 25.203125 0.34375 C 24.429688 0.625 23.632812 0.847656 22.8125 1.015625 C 22 1.179688 21.179688 1.289062 20.359375 1.34375 C 19.535156 1.394531 18.738281 1.421875 17.96875 1.421875 C 15.820312 1.421875 13.820312 1.0625 11.96875 0.34375 C 10.125 -0.363281 8.519531 -1.363281 7.15625 -2.65625 C 5.789062 -3.957031 4.710938 -5.519531 3.921875 -7.34375 C 3.140625 -9.164062 2.75 -11.1875 2.75 -13.40625 Z M 2.75 -13.40625 "/></g></g></g><g fill="#344f1f" fill-opacity="1"><g transform="translate(120.634457, 206.065319)"><g><path d="M 18.109375 -41.71875 L 17.125 -32.1875 C 16.988281 -30.894531 16.851562 -29.585938 16.71875 -28.265625 C 16.582031 -26.953125 16.445312 -25.691406 16.3125 -24.484375 C 16.1875 -23.273438 16.066406 -22.15625 15.953125 -21.125 C 15.847656 -20.101562 15.757812 -19.265625 15.6875 -18.609375 L 17.59375 -20.6875 L 20.671875 -24.296875 C 21.054688 -24.734375 21.429688 -25.171875 21.796875 -25.609375 C 22.160156 -26.046875 22.488281 -26.429688 22.78125 -26.765625 C 23.070312 -27.109375 23.304688 -27.394531 23.484375 -27.625 C 23.671875 -27.851562 23.785156 -27.988281 23.828125 -28.03125 L 34.875 -28.796875 C 34.925781 -28.816406 34.984375 -28.828125 35.046875 -28.828125 C 35.109375 -28.828125 35.171875 -28.828125 35.234375 -28.828125 C 35.546875 -28.828125 35.703125 -28.742188 35.703125 -28.578125 C 35.703125 -28.453125 35.507812 -28.171875 35.125 -27.734375 L 26.515625 -18.109375 C 26.128906 -17.691406 25.675781 -17.203125 25.15625 -16.640625 C 24.632812 -16.078125 24.050781 -15.457031 23.40625 -14.78125 L 27.421875 -10 L 34.34375 -2.5625 C 34.40625 -2.46875 34.488281 -2.394531 34.59375 -2.34375 C 34.707031 -2.300781 34.8125 -2.257812 34.90625 -2.21875 C 35.007812 -2.1875 35.101562 -2.144531 35.1875 -2.09375 C 35.269531 -2.050781 35.3125 -1.984375 35.3125 -1.890625 C 35.3125 -1.816406 35.296875 -1.757812 35.265625 -1.71875 C 35.242188 -1.6875 35.160156 -1.617188 35.015625 -1.515625 C 34.847656 -1.378906 34.554688 -1.191406 34.140625 -0.953125 C 33.734375 -0.722656 33.253906 -0.457031 32.703125 -0.15625 C 32.148438 0.132812 31.5625 0.429688 30.9375 0.734375 C 30.320312 1.035156 29.71875 1.304688 29.125 1.546875 C 28.539062 1.796875 28 2 27.5 2.15625 C 27.007812 2.3125 26.628906 2.390625 26.359375 2.390625 C 26.140625 2.390625 25.921875 2.332031 25.703125 2.21875 C 25.492188 2.113281 25.257812 1.914062 25 1.625 C 24.65625 1.21875 24.222656 0.6875 23.703125 0.03125 C 23.179688 -0.613281 22.617188 -1.320312 22.015625 -2.09375 C 21.410156 -2.875 20.789062 -3.679688 20.15625 -4.515625 C 19.519531 -5.347656 18.914062 -6.144531 18.34375 -6.90625 C 17.769531 -7.664062 17.25 -8.351562 16.78125 -8.96875 C 16.3125 -9.582031 15.945312 -10.070312 15.6875 -10.4375 C 15.59375 -10.351562 15.5 -10.285156 15.40625 -10.234375 C 15.320312 -10.191406 15.238281 -10.132812 15.15625 -10.0625 C 15.070312 -9.988281 15.003906 -9.898438 14.953125 -9.796875 C 14.898438 -9.691406 14.875 -9.550781 14.875 -9.375 C 14.875 -9.300781 14.851562 -9.09375 14.8125 -8.75 C 14.769531 -8.414062 14.726562 -8.015625 14.6875 -7.546875 C 14.644531 -7.078125 14.59375 -6.578125 14.53125 -6.046875 C 14.476562 -5.515625 14.425781 -5.015625 14.375 -4.546875 C 14.332031 -4.078125 14.289062 -3.671875 14.25 -3.328125 C 14.21875 -2.992188 14.203125 -2.789062 14.203125 -2.71875 C 14.203125 -2.59375 14.207031 -2.488281 14.21875 -2.40625 C 14.226562 -2.320312 14.234375 -2.242188 14.234375 -2.171875 C 14.234375 -1.972656 14.164062 -1.820312 14.03125 -1.71875 C 13.894531 -1.613281 13.5625 -1.488281 13.03125 -1.34375 L 5.828125 0.984375 C 5.628906 1.054688 5.363281 1.144531 5.03125 1.25 C 4.695312 1.363281 4.375 1.421875 4.0625 1.421875 C 3.8125 1.421875 3.585938 1.359375 3.390625 1.234375 C 3.203125 1.109375 3.109375 0.867188 3.109375 0.515625 L 6.5625 -39.078125 C 6.5625 -39.171875 6.550781 -39.257812 6.53125 -39.34375 C 6.519531 -39.425781 6.515625 -39.507812 6.515625 -39.59375 C 6.515625 -39.757812 6.582031 -39.910156 6.71875 -40.046875 C 6.851562 -40.191406 7.171875 -40.328125 7.671875 -40.453125 L 15.390625 -42.296875 C 15.585938 -42.328125 15.851562 -42.40625 16.1875 -42.53125 C 16.519531 -42.664062 16.835938 -42.734375 17.140625 -42.734375 C 17.378906 -42.734375 17.601562 -42.675781 17.8125 -42.5625 C 18.03125 -42.457031 18.140625 -42.25 18.140625 -41.9375 C 18.140625 -41.894531 18.132812 -41.851562 18.125 -41.8125 C 18.113281 -41.78125 18.109375 -41.75 18.109375 -41.71875 Z M 18.109375 -41.71875 "/></g></g></g><g fill="#344f1f" fill-opacity="1"><g transform="translate(155.18931, 206.065319)"><g><path d="M 18.078125 -2.203125 C 18.066406 -2.035156 18.035156 -1.875 17.984375 -1.71875 C 17.941406 -1.5625 17.816406 -1.4375 17.609375 -1.34375 C 17.535156 -1.3125 17.171875 -1.179688 16.515625 -0.953125 C 15.867188 -0.722656 15.117188 -0.457031 14.265625 -0.15625 C 13.421875 0.144531 12.582031 0.445312 11.75 0.75 C 10.914062 1.050781 10.28125 1.285156 9.84375 1.453125 C 9.625 1.546875 9.351562 1.640625 9.03125 1.734375 C 8.707031 1.835938 8.390625 1.890625 8.078125 1.890625 C 7.816406 1.890625 7.59375 1.828125 7.40625 1.703125 C 7.21875 1.578125 7.125 1.335938 7.125 0.984375 C 7.125 0.179688 7.144531 -0.550781 7.1875 -1.21875 C 7.226562 -1.882812 7.285156 -2.582031 7.359375 -3.3125 C 7.429688 -4.050781 7.507812 -4.863281 7.59375 -5.75 C 7.675781 -6.644531 7.753906 -7.707031 7.828125 -8.9375 C 7.921875 -10.539062 8.019531 -12.085938 8.125 -13.578125 C 8.238281 -15.078125 8.351562 -16.632812 8.46875 -18.25 L 8.84375 -22.953125 C 8.90625 -23.710938 8.960938 -24.488281 9.015625 -25.28125 C 9.066406 -26.082031 9.117188 -26.90625 9.171875 -27.75 L 9.484375 -31.109375 C 9.484375 -31.140625 9.425781 -31.15625 9.3125 -31.15625 C 9.164062 -31.15625 8.914062 -31.125 8.5625 -31.0625 C 8.21875 -31 7.804688 -30.921875 7.328125 -30.828125 C 6.859375 -30.742188 6.332031 -30.648438 5.75 -30.546875 C 5.175781 -30.441406 4.585938 -30.34375 3.984375 -30.25 C 3.835938 -30.25 3.695312 -30.28125 3.5625 -30.34375 C 3.425781 -30.414062 3.359375 -30.5 3.359375 -30.59375 C 3.359375 -30.664062 3.375 -30.71875 3.40625 -30.75 L 7.859375 -38.53125 C 8.867188 -38.75 9.953125 -38.972656 11.109375 -39.203125 C 12.273438 -39.429688 13.523438 -39.632812 14.859375 -39.8125 C 16.203125 -40 17.625 -40.148438 19.125 -40.265625 C 20.625 -40.390625 22.21875 -40.453125 23.90625 -40.453125 C 25.8125 -40.410156 27.664062 -40.21875 29.46875 -39.875 C 31.28125 -39.539062 32.882812 -38.972656 34.28125 -38.171875 C 35.6875 -37.378906 36.8125 -36.300781 37.65625 -34.9375 C 38.507812 -33.570312 38.9375 -31.847656 38.9375 -29.765625 C 38.9375 -28.609375 38.738281 -27.546875 38.34375 -26.578125 C 37.957031 -25.609375 37.457031 -24.734375 36.84375 -23.953125 C 36.226562 -23.171875 35.550781 -22.484375 34.8125 -21.890625 C 34.082031 -21.296875 33.382812 -20.785156 32.71875 -20.359375 C 32.050781 -19.941406 31.457031 -19.609375 30.9375 -19.359375 C 30.425781 -19.109375 30.082031 -18.945312 29.90625 -18.875 C 29.90625 -18.84375 29.914062 -18.796875 29.9375 -18.734375 C 29.96875 -18.679688 30.023438 -18.578125 30.109375 -18.421875 C 30.203125 -18.265625 30.335938 -18.046875 30.515625 -17.765625 C 30.691406 -17.484375 30.914062 -17.09375 31.1875 -16.59375 C 31.476562 -16.15625 31.828125 -15.566406 32.234375 -14.828125 C 32.640625 -14.097656 33.117188 -13.234375 33.671875 -12.234375 C 34.234375 -11.242188 34.878906 -10.132812 35.609375 -8.90625 C 36.347656 -7.675781 37.191406 -6.359375 38.140625 -4.953125 C 38.453125 -4.671875 38.804688 -4.5 39.203125 -4.4375 C 39.609375 -4.375 39.984375 -4.335938 40.328125 -4.328125 C 40.679688 -4.316406 40.976562 -4.296875 41.21875 -4.265625 C 41.457031 -4.242188 41.578125 -4.132812 41.578125 -3.9375 C 41.578125 -3.78125 41.425781 -3.609375 41.125 -3.421875 C 40.820312 -3.234375 40.46875 -3.035156 40.0625 -2.828125 C 39.664062 -2.628906 39.257812 -2.4375 38.84375 -2.25 C 38.425781 -2.070312 38.109375 -1.925781 37.890625 -1.8125 C 37.453125 -1.59375 36.992188 -1.378906 36.515625 -1.171875 C 36.046875 -0.972656 35.535156 -0.75 34.984375 -0.5 C 34.429688 -0.257812 33.820312 0.0234375 33.15625 0.359375 C 32.488281 0.691406 31.734375 1.082031 30.890625 1.53125 C 30.671875 1.664062 30.460938 1.753906 30.265625 1.796875 C 30.078125 1.847656 29.898438 1.875 29.734375 1.875 C 29.398438 1.875 29.113281 1.796875 28.875 1.640625 C 28.644531 1.484375 28.445312 1.289062 28.28125 1.0625 C 28.113281 0.84375 27.976562 0.617188 27.875 0.390625 C 27.78125 0.171875 27.695312 -0.015625 27.625 -0.171875 L 19.421875 -17.421875 Z M 19.765625 -20.796875 C 20.691406 -20.796875 21.660156 -21.035156 22.671875 -21.515625 C 23.679688 -21.992188 24.597656 -22.609375 25.421875 -23.359375 C 26.242188 -24.109375 26.921875 -24.957031 27.453125 -25.90625 C 27.984375 -26.863281 28.25 -27.828125 28.25 -28.796875 C 28.25 -31.453125 26.65625 -32.78125 23.46875 -32.78125 C 22.863281 -32.78125 22.359375 -32.738281 21.953125 -32.65625 C 21.554688 -32.570312 21.191406 -32.515625 20.859375 -32.484375 Z M 19.765625 -20.796875 "/></g></g></g><g fill="#344f1f" fill-opacity="1"><g transform="translate(195.649802, 206.065319)"><g><path d="M 31.359375 -5.53125 C 31.335938 -5.445312 31.328125 -5.375 31.328125 -5.3125 C 31.328125 -5.25 31.328125 -5.191406 31.328125 -5.140625 C 31.328125 -4.679688 31.398438 -4.300781 31.546875 -4 C 31.691406 -3.695312 31.851562 -3.445312 32.03125 -3.25 C 32.207031 -3.0625 32.367188 -2.90625 32.515625 -2.78125 C 32.660156 -2.664062 32.734375 -2.5625 32.734375 -2.46875 C 32.734375 -2.21875 32.457031 -1.984375 31.90625 -1.765625 L 24.515625 1.40625 C 24.492188 1.414062 24.429688 1.421875 24.328125 1.421875 C 24.171875 1.421875 24.019531 1.289062 23.875 1.03125 C 23.726562 0.78125 23.585938 0.457031 23.453125 0.0625 C 23.316406 -0.320312 23.1875 -0.738281 23.0625 -1.1875 C 22.945312 -1.644531 22.84375 -2.066406 22.75 -2.453125 C 21.59375 -1.109375 20.347656 -0.128906 19.015625 0.484375 C 17.679688 1.109375 16.351562 1.421875 15.03125 1.421875 C 13.488281 1.421875 11.984375 1.082031 10.515625 0.40625 C 9.054688 -0.269531 7.757812 -1.234375 6.625 -2.484375 C 5.488281 -3.742188 4.578125 -5.257812 3.890625 -7.03125 C 3.203125 -8.8125 2.859375 -10.8125 2.859375 -13.03125 C 2.859375 -15.644531 3.238281 -18.03125 4 -20.1875 C 4.757812 -22.351562 5.789062 -24.210938 7.09375 -25.765625 C 8.394531 -27.328125 9.910156 -28.535156 11.640625 -29.390625 C 13.367188 -30.242188 15.203125 -30.671875 17.140625 -30.671875 C 18.515625 -30.671875 19.816406 -30.390625 21.046875 -29.828125 C 22.273438 -29.273438 23.441406 -28.554688 24.546875 -27.671875 C 24.648438 -28.222656 24.710938 -28.660156 24.734375 -28.984375 C 24.753906 -29.316406 24.796875 -29.570312 24.859375 -29.75 C 24.921875 -29.9375 25.039062 -30.0625 25.21875 -30.125 C 25.40625 -30.195312 25.710938 -30.25 26.140625 -30.28125 C 27.453125 -30.46875 28.765625 -30.640625 30.078125 -30.796875 C 31.390625 -30.953125 32.757812 -31.066406 34.1875 -31.140625 Z M 23.140625 -15.890625 C 23.316406 -16.929688 23.4375 -17.910156 23.5 -18.828125 C 23.570312 -19.753906 23.625 -20.601562 23.65625 -21.375 C 23.363281 -21.59375 23.046875 -21.820312 22.703125 -22.0625 C 22.367188 -22.300781 22.003906 -22.523438 21.609375 -22.734375 C 21.210938 -22.953125 20.800781 -23.125 20.375 -23.25 C 19.945312 -23.375 19.492188 -23.4375 19.015625 -23.4375 C 18.023438 -23.4375 17.195312 -23.113281 16.53125 -22.46875 C 15.863281 -21.832031 15.320312 -21.046875 14.90625 -20.109375 C 14.5 -19.179688 14.207031 -18.191406 14.03125 -17.140625 C 13.851562 -16.097656 13.765625 -15.175781 13.765625 -14.375 C 13.765625 -11.476562 14.144531 -9.351562 14.90625 -8 C 15.664062 -6.65625 16.722656 -5.984375 18.078125 -5.984375 C 18.628906 -5.984375 19.242188 -6.140625 19.921875 -6.453125 C 20.597656 -6.765625 21.285156 -7.195312 21.984375 -7.75 Z M 23.140625 -15.890625 "/></g></g></g><g fill="#344f1f" fill-opacity="1"><g transform="translate(229.929974, 206.065319)"><g><path d="M 26.109375 0.984375 C 25.910156 1.046875 25.644531 1.132812 25.3125 1.25 C 24.976562 1.363281 24.65625 1.421875 24.34375 1.421875 C 24.09375 1.421875 23.867188 1.359375 23.671875 1.234375 C 23.484375 1.109375 23.390625 0.890625 23.390625 0.578125 L 23.390625 0.40625 C 23.492188 -0.582031 23.582031 -1.421875 23.65625 -2.109375 C 23.726562 -2.796875 23.796875 -3.414062 23.859375 -3.96875 C 23.929688 -4.53125 23.988281 -5.085938 24.03125 -5.640625 C 24.070312 -6.203125 24.128906 -6.851562 24.203125 -7.59375 C 24.285156 -8.34375 24.375 -9.222656 24.46875 -10.234375 C 24.570312 -11.253906 24.695312 -12.523438 24.84375 -14.046875 C 24.9375 -14.972656 25.019531 -15.921875 25.09375 -16.890625 C 25.164062 -17.867188 25.203125 -18.769531 25.203125 -19.59375 C 25.203125 -20.144531 25.160156 -20.648438 25.078125 -21.109375 C 24.992188 -21.578125 24.847656 -21.984375 24.640625 -22.328125 C 24.429688 -22.671875 24.140625 -22.929688 23.765625 -23.109375 C 23.398438 -23.296875 22.9375 -23.390625 22.375 -23.390625 C 21.945312 -23.390625 21.363281 -23.296875 20.625 -23.109375 C 19.882812 -22.929688 19.144531 -22.628906 18.40625 -22.203125 C 17.675781 -21.785156 17.023438 -21.234375 16.453125 -20.546875 C 15.890625 -19.859375 15.570312 -19.007812 15.5 -18 C 15.382812 -16.644531 15.28125 -15.484375 15.1875 -14.515625 C 15.101562 -13.554688 15.023438 -12.742188 14.953125 -12.078125 C 14.878906 -11.410156 14.816406 -10.863281 14.765625 -10.4375 C 14.722656 -10.019531 14.691406 -9.664062 14.671875 -9.375 C 14.648438 -9.300781 14.617188 -9.097656 14.578125 -8.765625 C 14.546875 -8.429688 14.507812 -8.035156 14.46875 -7.578125 C 14.425781 -7.117188 14.378906 -6.632812 14.328125 -6.125 C 14.285156 -5.613281 14.238281 -5.128906 14.1875 -4.671875 C 14.144531 -4.210938 14.109375 -3.816406 14.078125 -3.484375 C 14.054688 -3.160156 14.046875 -2.960938 14.046875 -2.890625 C 14.046875 -2.742188 14.050781 -2.617188 14.0625 -2.515625 C 14.070312 -2.410156 14.078125 -2.3125 14.078125 -2.21875 C 14.078125 -2.070312 14.003906 -1.945312 13.859375 -1.84375 C 13.722656 -1.75 13.414062 -1.640625 12.9375 -1.515625 L 5.65625 0.984375 C 5.457031 1.054688 5.191406 1.144531 4.859375 1.25 C 4.535156 1.363281 4.21875 1.421875 3.90625 1.421875 C 3.644531 1.421875 3.414062 1.359375 3.21875 1.234375 C 3.03125 1.109375 2.9375 0.890625 2.9375 0.578125 L 5.4375 -27.515625 C 5.5 -28.117188 5.566406 -28.535156 5.640625 -28.765625 C 5.722656 -28.992188 5.929688 -29.144531 6.265625 -29.21875 C 7.929688 -29.539062 9.644531 -29.867188 11.40625 -30.203125 C 13.164062 -30.546875 14.878906 -30.984375 16.546875 -31.515625 C 16.691406 -31.515625 16.773438 -31.492188 16.796875 -31.453125 C 16.828125 -31.410156 16.84375 -31.34375 16.84375 -31.25 C 16.84375 -31.207031 16.835938 -31.148438 16.828125 -31.078125 C 16.816406 -31.003906 16.789062 -30.835938 16.75 -30.578125 C 16.707031 -30.328125 16.644531 -29.941406 16.5625 -29.421875 C 16.476562 -28.898438 16.363281 -28.171875 16.21875 -27.234375 C 17.476562 -27.960938 18.660156 -28.550781 19.765625 -29 C 20.878906 -29.445312 21.925781 -29.796875 22.90625 -30.046875 C 23.882812 -30.296875 24.800781 -30.460938 25.65625 -30.546875 C 26.519531 -30.628906 27.328125 -30.671875 28.078125 -30.671875 C 30.660156 -30.671875 32.539062 -29.882812 33.71875 -28.3125 C 34.894531 -26.75 35.484375 -24.398438 35.484375 -21.265625 C 35.484375 -20.828125 35.472656 -20.375 35.453125 -19.90625 C 35.429688 -19.4375 35.394531 -18.957031 35.34375 -18.46875 L 34.078125 -6.65625 C 33.984375 -5.882812 33.925781 -5.171875 33.90625 -4.515625 C 33.894531 -3.867188 33.890625 -3.113281 33.890625 -2.25 C 33.890625 -2.101562 33.890625 -1.976562 33.890625 -1.875 C 33.898438 -1.78125 33.90625 -1.695312 33.90625 -1.625 C 33.90625 -1.457031 33.835938 -1.328125 33.703125 -1.234375 C 33.566406 -1.140625 33.257812 -1.019531 32.78125 -0.875 Z M 26.109375 0.984375 "/></g></g></g><g fill="#344f1f" fill-opacity="1"><g transform="translate(266.242784, 206.065319)"><g><path d="M 23.328125 -19.59375 C 23.148438 -20.007812 22.898438 -20.4375 22.578125 -20.875 C 22.253906 -21.320312 21.878906 -21.726562 21.453125 -22.09375 C 21.035156 -22.457031 20.578125 -22.753906 20.078125 -22.984375 C 19.585938 -23.210938 19.066406 -23.328125 18.515625 -23.328125 C 17.765625 -23.328125 17.0625 -23.015625 16.40625 -22.390625 C 15.75 -21.773438 15.171875 -20.945312 14.671875 -19.90625 C 14.179688 -18.875 13.789062 -17.691406 13.5 -16.359375 C 13.21875 -15.035156 13.078125 -13.660156 13.078125 -12.234375 C 13.078125 -11.347656 13.15625 -10.515625 13.3125 -9.734375 C 13.46875 -8.960938 13.707031 -8.28125 14.03125 -7.6875 C 14.363281 -7.101562 14.789062 -6.632812 15.3125 -6.28125 C 15.84375 -5.9375 16.472656 -5.765625 17.203125 -5.765625 C 18.304688 -5.765625 19.3125 -6.109375 20.21875 -6.796875 C 21.132812 -7.484375 21.914062 -8.378906 22.5625 -9.484375 C 22.582031 -9.867188 22.609375 -10.328125 22.640625 -10.859375 C 22.679688 -11.390625 22.726562 -12.035156 22.78125 -12.796875 C 22.832031 -13.554688 22.898438 -14.453125 22.984375 -15.484375 C 23.066406 -16.515625 23.171875 -17.75 23.296875 -19.1875 Z M 32.421875 -3 C 32.242188 -1.1875 31.832031 0.503906 31.1875 2.078125 C 30.550781 3.660156 29.738281 5.101562 28.75 6.40625 C 27.769531 7.71875 26.65625 8.890625 25.40625 9.921875 C 24.15625 10.960938 22.828125 11.835938 21.421875 12.546875 C 20.015625 13.265625 18.570312 13.8125 17.09375 14.1875 C 15.613281 14.5625 14.148438 14.75 12.703125 14.75 C 11.929688 14.75 11.140625 14.722656 10.328125 14.671875 C 9.523438 14.617188 8.738281 14.515625 7.96875 14.359375 C 7.195312 14.203125 6.460938 13.976562 5.765625 13.6875 C 5.078125 13.40625 4.457031 13.046875 3.90625 12.609375 L 3.90625 12.59375 C 3.90625 12.5 3.972656 12.175781 4.109375 11.625 C 4.242188 11.070312 4.40625 10.425781 4.59375 9.6875 C 4.789062 8.945312 4.992188 8.179688 5.203125 7.390625 C 5.421875 6.597656 5.601562 5.921875 5.75 5.359375 C 5.820312 5.097656 5.894531 4.921875 5.96875 4.828125 C 6.039062 4.742188 6.117188 4.703125 6.203125 4.703125 C 6.316406 4.703125 6.382812 4.710938 6.40625 4.734375 C 6.9375 5.078125 7.4375 5.363281 7.90625 5.59375 C 8.375 5.820312 8.867188 6.003906 9.390625 6.140625 C 9.910156 6.273438 10.476562 6.367188 11.09375 6.421875 C 11.71875 6.484375 12.441406 6.515625 13.265625 6.515625 C 14.554688 6.515625 15.695312 6.265625 16.6875 5.765625 C 17.675781 5.273438 18.523438 4.632812 19.234375 3.84375 C 19.953125 3.0625 20.523438 2.195312 20.953125 1.25 C 21.378906 0.300781 21.675781 -0.625 21.84375 -1.53125 C 20.53125 -0.65625 19.191406 0.0507812 17.828125 0.59375 C 16.472656 1.144531 15.109375 1.421875 13.734375 1.421875 C 11.847656 1.421875 10.21875 1.039062 8.84375 0.28125 C 7.46875 -0.476562 6.332031 -1.5 5.4375 -2.78125 C 4.539062 -4.0625 3.875 -5.53125 3.4375 -7.1875 C 3.007812 -8.84375 2.796875 -10.578125 2.796875 -12.390625 C 2.796875 -13.816406 2.925781 -15.257812 3.1875 -16.71875 C 3.457031 -18.175781 3.851562 -19.582031 4.375 -20.9375 C 4.90625 -22.289062 5.550781 -23.554688 6.3125 -24.734375 C 7.082031 -25.921875 7.972656 -26.953125 8.984375 -27.828125 C 9.992188 -28.710938 11.113281 -29.40625 12.34375 -29.90625 C 13.570312 -30.414062 14.90625 -30.671875 16.34375 -30.671875 C 17.925781 -30.671875 19.390625 -30.320312 20.734375 -29.625 C 22.078125 -28.925781 23.300781 -28.066406 24.40625 -27.046875 C 24.4375 -27.367188 24.460938 -27.625 24.484375 -27.8125 C 24.503906 -28.007812 24.550781 -28.160156 24.625 -28.265625 C 24.695312 -28.378906 24.816406 -28.460938 24.984375 -28.515625 C 25.160156 -28.578125 25.414062 -28.644531 25.75 -28.71875 C 25.945312 -28.75 26.3125 -28.820312 26.84375 -28.9375 C 27.375 -29.0625 28.003906 -29.207031 28.734375 -29.375 C 29.472656 -29.539062 30.28125 -29.710938 31.15625 -29.890625 C 32.039062 -30.078125 32.929688 -30.269531 33.828125 -30.46875 C 34.046875 -30.53125 34.25 -30.5625 34.4375 -30.5625 C 35 -30.5625 35.28125 -30.191406 35.28125 -29.453125 C 35.28125 -29.367188 35.28125 -29.285156 35.28125 -29.203125 C 35.28125 -29.117188 35.273438 -29.03125 35.265625 -28.9375 Z M 32.421875 -3 "/></g></g></g><g fill="#344f1f" fill-opacity="1"><g transform="translate(301.813957, 206.065319)"><g><path d="M 19.671875 -30.671875 C 21.410156 -30.671875 22.988281 -30.34375 24.40625 -29.6875 C 25.832031 -29.039062 27.050781 -28.195312 28.0625 -27.15625 C 29.082031 -26.125 29.867188 -24.96875 30.421875 -23.6875 C 30.972656 -22.40625 31.25 -21.125 31.25 -19.84375 C 31.25 -18.707031 30.898438 -17.566406 30.203125 -16.421875 C 29.503906 -15.273438 28.523438 -14.242188 27.265625 -13.328125 C 26.015625 -12.410156 24.507812 -11.664062 22.75 -11.09375 C 20.988281 -10.53125 19.054688 -10.25 16.953125 -10.25 C 15.859375 -10.25 14.707031 -10.359375 13.5 -10.578125 C 13.570312 -9.796875 13.796875 -9.117188 14.171875 -8.546875 C 14.554688 -7.972656 15.039062 -7.503906 15.625 -7.140625 C 16.21875 -6.773438 16.882812 -6.503906 17.625 -6.328125 C 18.363281 -6.160156 19.128906 -6.078125 19.921875 -6.078125 C 20.804688 -6.078125 21.65625 -6.15625 22.46875 -6.3125 C 23.28125 -6.46875 24.0625 -6.671875 24.8125 -6.921875 C 25.5625 -7.179688 26.285156 -7.46875 26.984375 -7.78125 C 27.679688 -8.09375 28.34375 -8.40625 28.96875 -8.71875 C 29.132812 -8.75 29.273438 -8.773438 29.390625 -8.796875 C 29.503906 -8.828125 29.617188 -8.84375 29.734375 -8.84375 C 29.734375 -8.84375 29.726562 -8.695312 29.71875 -8.40625 C 29.707031 -8.113281 29.703125 -7.703125 29.703125 -7.171875 C 29.703125 -6.640625 29.695312 -6 29.6875 -5.25 C 29.675781 -4.5 29.664062 -3.664062 29.65625 -2.75 C 29.707031 -2.65625 29.742188 -2.5625 29.765625 -2.46875 C 29.785156 -2.375 29.796875 -2.300781 29.796875 -2.25 C 29.796875 -2.03125 29.59375 -1.789062 29.1875 -1.53125 C 28.78125 -1.28125 28.25 -1.015625 27.59375 -0.734375 C 26.945312 -0.460938 26.207031 -0.203125 25.375 0.046875 C 24.539062 0.304688 23.691406 0.539062 22.828125 0.75 C 21.972656 0.96875 21.140625 1.132812 20.328125 1.25 C 19.523438 1.363281 18.820312 1.421875 18.21875 1.421875 C 16.238281 1.421875 14.316406 1.078125 12.453125 0.390625 C 10.597656 -0.285156 8.953125 -1.265625 7.515625 -2.546875 C 6.078125 -3.835938 4.925781 -5.394531 4.0625 -7.21875 C 3.207031 -9.050781 2.78125 -11.113281 2.78125 -13.40625 C 2.78125 -15.8125 3.191406 -18.0625 4.015625 -20.15625 C 4.835938 -22.25 5.992188 -24.070312 7.484375 -25.625 C 8.984375 -27.1875 10.765625 -28.414062 12.828125 -29.3125 C 14.898438 -30.21875 17.179688 -30.671875 19.671875 -30.671875 Z M 19.34375 -23.359375 C 18.59375 -23.359375 17.898438 -23.195312 17.265625 -22.875 C 16.640625 -22.550781 16.0625 -22.09375 15.53125 -21.5 C 15.007812 -20.90625 14.554688 -20.191406 14.171875 -19.359375 C 13.796875 -18.523438 13.488281 -17.601562 13.25 -16.59375 C 15.132812 -16.925781 16.695312 -17.273438 17.9375 -17.640625 C 19.1875 -18.003906 20.1875 -18.375 20.9375 -18.75 C 21.6875 -19.125 22.21875 -19.5 22.53125 -19.875 C 22.84375 -20.257812 23 -20.625 23 -20.96875 C 23 -21.300781 22.875 -21.613281 22.625 -21.90625 C 22.382812 -22.195312 22.078125 -22.453125 21.703125 -22.671875 C 21.335938 -22.890625 20.941406 -23.054688 20.515625 -23.171875 C 20.085938 -23.296875 19.695312 -23.359375 19.34375 -23.359375 Z M 19.34375 -23.359375 "/></g></g></g><g fill="#344f1f" fill-opacity="1"><g transform="translate(333.182512, 206.065319)"><g><path d="M 25.78125 -22.375 C 25.394531 -22.40625 24.960938 -22.441406 24.484375 -22.484375 C 24.003906 -22.535156 23.5 -22.5625 22.96875 -22.5625 C 22.164062 -22.5625 21.347656 -22.492188 20.515625 -22.359375 C 19.679688 -22.222656 18.90625 -21.953125 18.1875 -21.546875 C 17.476562 -21.140625 16.863281 -20.582031 16.34375 -19.875 C 15.832031 -19.175781 15.503906 -18.265625 15.359375 -17.140625 C 15.234375 -15.785156 15.128906 -14.671875 15.046875 -13.796875 C 14.960938 -12.929688 14.898438 -12.21875 14.859375 -11.65625 C 14.828125 -11.101562 14.796875 -10.65625 14.765625 -10.3125 C 14.742188 -9.976562 14.722656 -9.664062 14.703125 -9.375 C 14.703125 -9.300781 14.6875 -9.097656 14.65625 -8.765625 C 14.632812 -8.429688 14.59375 -8.046875 14.53125 -7.609375 C 14.476562 -7.171875 14.425781 -6.691406 14.375 -6.171875 C 14.332031 -5.660156 14.285156 -5.1875 14.234375 -4.75 C 14.179688 -4.3125 14.140625 -3.925781 14.109375 -3.59375 C 14.085938 -3.269531 14.078125 -3.070312 14.078125 -3 C 14.078125 -2.851562 14.078125 -2.726562 14.078125 -2.625 C 14.085938 -2.519531 14.09375 -2.421875 14.09375 -2.328125 C 14.09375 -2.179688 14.023438 -2.054688 13.890625 -1.953125 C 13.753906 -1.859375 13.445312 -1.75 12.96875 -1.625 L 5.6875 0.984375 C 5.488281 1.054688 5.222656 1.144531 4.890625 1.25 C 4.554688 1.363281 4.238281 1.421875 3.9375 1.421875 C 3.675781 1.421875 3.445312 1.359375 3.25 1.234375 C 3.0625 1.109375 2.96875 0.890625 2.96875 0.578125 L 5.328125 -26.65625 C 5.378906 -27.257812 5.445312 -27.675781 5.53125 -27.90625 C 5.613281 -28.132812 5.820312 -28.285156 6.15625 -28.359375 C 7.820312 -28.691406 9.539062 -29.023438 11.3125 -29.359375 C 13.09375 -29.703125 14.816406 -30.140625 16.484375 -30.671875 C 16.628906 -30.671875 16.71875 -30.644531 16.75 -30.59375 C 16.78125 -30.550781 16.796875 -30.484375 16.796875 -30.390625 C 16.796875 -30.359375 16.789062 -30.304688 16.78125 -30.234375 C 16.769531 -30.160156 16.738281 -29.992188 16.6875 -29.734375 C 16.644531 -29.472656 16.582031 -29.082031 16.5 -28.5625 C 16.414062 -28.039062 16.300781 -27.3125 16.15625 -26.375 C 17 -27.039062 17.925781 -27.644531 18.9375 -28.1875 C 19.957031 -28.738281 20.976562 -29.210938 22 -29.609375 C 23.03125 -30.003906 24.019531 -30.316406 24.96875 -30.546875 C 25.925781 -30.773438 26.765625 -30.890625 27.484375 -30.890625 Z M 25.78125 -22.375 "/></g></g></g></svg>